{
	"asset":{
		"generator":"Khronos glTF Blender I/O v5.1.0",
		"version":"2.0"
	},
	"scene":0,
	"scenes":[
		{
			"name":"Scene",
			"nodes":[
				0,
				1,
				2,
				3,
				4,
				5,
				6,
				7
			]
		}
	],
	"nodes":[
		{
			"mesh":0,
			"name":"Plane"
		},
		{
			"mesh":1,
			"name":"Plane.001",
			"translation":[
				0,
				0,
				2
			]
		},
		{
			"mesh":2,
			"name":"Plane.002",
			"translation":[
				-2,
				0,
				0
			]
		},
		{
			"mesh":3,
			"name":"Plane.003",
			"translation":[
				-2,
				0,
				2
			]
		},
		{
			"mesh":4,
			"name":"Plane.004",
			"translation":[
				-2,
				0,
				4
			]
		},
		{
			"mesh":5,
			"name":"Plane.005",
			"translation":[
				-4,
				0,
				2
			]
		},
		{
			"mesh":6,
			"name":"Plane.006",
			"translation":[
				-4,
				0,
				4
			]
		},
		{
			"mesh":7,
			"name":"Plane.007",
			"translation":[
				0,
				-0.10000000149011612,
				0
			]
		}
	],
	"materials":[
		{
			"doubleSided":true,
			"name":"Material.001",
			"pbrMetallicRoughness":{
				"baseColorTexture":{
					"index":0
				},
				"metallicFactor":0,
				"roughnessFactor":0.5
			}
		},
		{
			"doubleSided":true,
			"name":"Material.002",
			"pbrMetallicRoughness":{
				"baseColorTexture":{
					"index":1
				},
				"metallicFactor":0,
				"roughnessFactor":0.5
			}
		},
		{
			"doubleSided":true,
			"name":"Material.003",
			"pbrMetallicRoughness":{
				"baseColorTexture":{
					"index":2
				},
				"metallicFactor":0,
				"roughnessFactor":0.5
			}
		},
		{
			"doubleSided":true,
			"name":"Material.004",
			"pbrMetallicRoughness":{
				"baseColorTexture":{
					"index":3
				},
				"metallicFactor":0,
				"roughnessFactor":0.5
			}
		},
		{
			"doubleSided":true,
			"name":"Material.005",
			"pbrMetallicRoughness":{
				"baseColorTexture":{
					"index":4
				},
				"metallicFactor":0,
				"roughnessFactor":0.5
			}
		},
		{
			"doubleSided":true,
			"name":"Material.006",
			"pbrMetallicRoughness":{
				"baseColorTexture":{
					"index":5
				},
				"metallicFactor":0,
				"roughnessFactor":0.5
			}
		},
		{
			"doubleSided":true,
			"name":"Material.007",
			"pbrMetallicRoughness":{
				"baseColorTexture":{
					"index":6
				},
				"metallicFactor":0,
				"roughnessFactor":0.5
			}
		},
		{
			"doubleSided":true,
			"name":"Material.008",
			"pbrMetallicRoughness":{
				"baseColorFactor":[
					0,
					0.40197500586509705,
					0.8549847602844238,
					1
				],
				"metallicFactor":0,
				"roughnessFactor":0.5
			}
		}
	],
	"meshes":[
		{
			"name":"Plane",
			"primitives":[
				{
					"attributes":{
						"POSITION":0,
						"NORMAL":1,
						"TEXCOORD_0":2
					},
					"indices":3,
					"material":0
				}
			]
		},
		{
			"name":"Plane.001",
			"primitives":[
				{
					"attributes":{
						"POSITION":4,
						"NORMAL":5,
						"TEXCOORD_0":6
					},
					"indices":3,
					"material":1
				}
			]
		},
		{
			"name":"Plane.002",
			"primitives":[
				{
					"attributes":{
						"POSITION":7,
						"NORMAL":8,
						"TEXCOORD_0":9
					},
					"indices":3,
					"material":2
				}
			]
		},
		{
			"name":"Plane.003",
			"primitives":[
				{
					"attributes":{
						"POSITION":10,
						"NORMAL":11,
						"TEXCOORD_0":12
					},
					"indices":3,
					"material":3
				}
			]
		},
		{
			"name":"Plane.004",
			"primitives":[
				{
					"attributes":{
						"POSITION":13,
						"NORMAL":14,
						"TEXCOORD_0":15
					},
					"indices":3,
					"material":4
				}
			]
		},
		{
			"name":"Plane.005",
			"primitives":[
				{
					"attributes":{
						"POSITION":16,
						"NORMAL":17,
						"TEXCOORD_0":18
					},
					"indices":3,
					"material":5
				}
			]
		},
		{
			"name":"Plane.006",
			"primitives":[
				{
					"attributes":{
						"POSITION":19,
						"NORMAL":20,
						"TEXCOORD_0":21
					},
					"indices":3,
					"material":6
				}
			]
		},
		{
			"name":"Plane.007",
			"primitives":[
				{
					"attributes":{
						"POSITION":22,
						"NORMAL":23,
						"TEXCOORD_0":24
					},
					"indices":25,
					"material":7
				}
			]
		}
	],
	"textures":[
		{
			"sampler":0,
			"source":0
		},
		{
			"sampler":0,
			"source":1
		},
		{
			"sampler":0,
			"source":2
		},
		{
			"sampler":0,
			"source":3
		},
		{
			"sampler":0,
			"source":4
		},
		{
			"sampler":0,
			"source":5
		},
		{
			"sampler":0,
			"source":6
		}
	],
	"images":[
		{
			"mimeType":"image/png",
			"name":"northmohrtana",
			"uri":"northmohrtana.png"
		},
		{
			"mimeType":"image/png",
			"name":"southmohrtana",
			"uri":"southmohrtana.png"
		},
		{
			"mimeType":"image/png",
			"name":"sidthstand",
			"uri":"sidthstand.png"
		},
		{
			"mimeType":"image/png",
			"name":"styttingr",
			"uri":"styttingr.png"
		},
		{
			"mimeType":"image/png",
			"name":"yngfell",
			"uri":"yngfell.png"
		},
		{
			"mimeType":"image/png",
			"name":"flohtbryr",
			"uri":"flohtbryr.png"
		},
		{
			"mimeType":"image/png",
			"name":"blodtungur",
			"uri":"blodtungur.png"
		}
	],
	"accessors":[
		{
			"bufferView":0,
			"componentType":5126,
			"count":16641,
			"max":[
				1,
				0,
				1
			],
			"min":[
				-1,
				0,
				-1
			],
			"type":"VEC3"
		},
		{
			"bufferView":1,
			"componentType":5126,
			"count":16641,
			"type":"VEC3"
		},
		{
			"bufferView":2,
			"componentType":5126,
			"count":16641,
			"type":"VEC2"
		},
		{
			"bufferView":3,
			"componentType":5123,
			"count":98304,
			"type":"SCALAR"
		},
		{
			"bufferView":4,
			"componentType":5126,
			"count":16641,
			"max":[
				1,
				0,
				1
			],
			"min":[
				-1,
				0,
				-1
			],
			"type":"VEC3"
		},
		{
			"bufferView":5,
			"componentType":5126,
			"count":16641,
			"type":"VEC3"
		},
		{
			"bufferView":6,
			"componentType":5126,
			"count":16641,
			"type":"VEC2"
		},
		{
			"bufferView":7,
			"componentType":5126,
			"count":16641,
			"max":[
				1,
				0,
				1
			],
			"min":[
				-1,
				0,
				-1
			],
			"type":"VEC3"
		},
		{
			"bufferView":8,
			"componentType":5126,
			"count":16641,
			"type":"VEC3"
		},
		{
			"bufferView":9,
			"componentType":5126,
			"count":16641,
			"type":"VEC2"
		},
		{
			"bufferView":10,
			"componentType":5126,
			"count":16641,
			"max":[
				1,
				0,
				1
			],
			"min":[
				-1,
				0,
				-1
			],
			"type":"VEC3"
		},
		{
			"bufferView":11,
			"componentType":5126,
			"count":16641,
			"type":"VEC3"
		},
		{
			"bufferView":12,
			"componentType":5126,
			"count":16641,
			"type":"VEC2"
		},
		{
			"bufferView":13,
			"componentType":5126,
			"count":16641,
			"max":[
				1,
				0,
				1
			],
			"min":[
				-1,
				0,
				-1
			],
			"type":"VEC3"
		},
		{
			"bufferView":14,
			"componentType":5126,
			"count":16641,
			"type":"VEC3"
		},
		{
			"bufferView":15,
			"componentType":5126,
			"count":16641,
			"type":"VEC2"
		},
		{
			"bufferView":16,
			"componentType":5126,
			"count":16641,
			"max":[
				1,
				0,
				1
			],
			"min":[
				-1,
				0,
				-1
			],
			"type":"VEC3"
		},
		{
			"bufferView":17,
			"componentType":5126,
			"count":16641,
			"type":"VEC3"
		},
		{
			"bufferView":18,
			"componentType":5126,
			"count":16641,
			"type":"VEC2"
		},
		{
			"bufferView":19,
			"componentType":5126,
			"count":16641,
			"max":[
				1,
				0,
				1
			],
			"min":[
				-1,
				0,
				-1
			],
			"type":"VEC3"
		},
		{
			"bufferView":20,
			"componentType":5126,
			"count":16641,
			"type":"VEC3"
		},
		{
			"bufferView":21,
			"componentType":5126,
			"count":16641,
			"type":"VEC2"
		},
		{
			"bufferView":22,
			"componentType":5126,
			"count":4,
			"max":[
				100000,
				0,
				100000
			],
			"min":[
				-100000,
				0,
				-100000
			],
			"type":"VEC3"
		},
		{
			"bufferView":23,
			"componentType":5126,
			"count":4,
			"type":"VEC3"
		},
		{
			"bufferView":24,
			"componentType":5126,
			"count":4,
			"type":"VEC2"
		},
		{
			"bufferView":25,
			"componentType":5123,
			"count":6,
			"type":"SCALAR"
		}
	],
	"bufferViews":[
		{
			"buffer":0,
			"byteLength":199692,
			"byteOffset":0,
			"target":34962
		},
		{
			"buffer":0,
			"byteLength":199692,
			"byteOffset":199692,
			"target":34962
		},
		{
			"buffer":0,
			"byteLength":133128,
			"byteOffset":399384,
			"target":34962
		},
		{
			"buffer":0,
			"byteLength":196608,
			"byteOffset":532512,
			"target":34963
		},
		{
			"buffer":0,
			"byteLength":199692,
			"byteOffset":729120,
			"target":34962
		},
		{
			"buffer":0,
			"byteLength":199692,
			"byteOffset":928812,
			"target":34962
		},
		{
			"buffer":0,
			"byteLength":133128,
			"byteOffset":1128504,
			"target":34962
		},
		{
			"buffer":0,
			"byteLength":199692,
			"byteOffset":1261632,
			"target":34962
		},
		{
			"buffer":0,
			"byteLength":199692,
			"byteOffset":1461324,
			"target":34962
		},
		{
			"buffer":0,
			"byteLength":133128,
			"byteOffset":1661016,
			"target":34962
		},
		{
			"buffer":0,
			"byteLength":199692,
			"byteOffset":1794144,
			"target":34962
		},
		{
			"buffer":0,
			"byteLength":199692,
			"byteOffset":1993836,
			"target":34962
		},
		{
			"buffer":0,
			"byteLength":133128,
			"byteOffset":2193528,
			"target":34962
		},
		{
			"buffer":0,
			"byteLength":199692,
			"byteOffset":2326656,
			"target":34962
		},
		{
			"buffer":0,
			"byteLength":199692,
			"byteOffset":2526348,
			"target":34962
		},
		{
			"buffer":0,
			"byteLength":133128,
			"byteOffset":2726040,
			"target":34962
		},
		{
			"buffer":0,
			"byteLength":199692,
			"byteOffset":2859168,
			"target":34962
		},
		{
			"buffer":0,
			"byteLength":199692,
			"byteOffset":3058860,
			"target":34962
		},
		{
			"buffer":0,
			"byteLength":133128,
			"byteOffset":3258552,
			"target":34962
		},
		{
			"buffer":0,
			"byteLength":199692,
			"byteOffset":3391680,
			"target":34962
		},
		{
			"buffer":0,
			"byteLength":199692,
			"byteOffset":3591372,
			"target":34962
		},
		{
			"buffer":0,
			"byteLength":133128,
			"byteOffset":3791064,
			"target":34962
		},
		{
			"buffer":0,
			"byteLength":48,
			"byteOffset":3924192,
			"target":34962
		},
		{
			"buffer":0,
			"byteLength":48,
			"byteOffset":3924240,
			"target":34962
		},
		{
			"buffer":0,
			"byteLength":32,
			"byteOffset":3924288,
			"target":34962
		},
		{
			"buffer":0,
			"byteLength":12,
			"byteOffset":3924320,
			"target":34963
		}
	],
	"samplers":[
		{
			"magFilter":9728,
			"minFilter":9984
		}
	],
	"buffers":[
		{
			"byteLength":3924332,
			"uri":"mohrtana.bin"
		}
	]
}
